<svg width="16" height="15" viewBox="0 0 16 15" fill="none" xmlns="http://www.w3.org/2000/svg">
<path d="M7.82864 0.284744C7.90637 0.15558 8.09363 0.15558 8.17136 0.284744L10.5896 4.30301C10.6175 4.34941 10.6631 4.3825 10.7158 4.39472L15.2847 5.45288C15.4316 5.48689 15.4894 5.66499 15.3906 5.77883L12.3163 9.32041C12.2808 9.36131 12.2634 9.41486 12.2681 9.46881L12.6735 14.141C12.6866 14.2912 12.5351 14.4013 12.3963 14.3425L8.07802 12.5131C8.02815 12.4919 7.97185 12.4919 7.92198 12.5131L3.60372 14.3425C3.46491 14.4013 3.31342 14.2912 3.32645 14.141L3.73194 9.46881C3.73662 9.41486 3.71922 9.36131 3.68372 9.32041L0.609402 5.77883C0.51058 5.66499 0.568446 5.48689 0.715309 5.45288L5.28418 4.39472C5.33694 4.3825 5.38249 4.34941 5.41041 4.30301L7.82864 0.284744Z" fill="#FF9F66"/>
</svg>
